<?xml version="1.0" encoding="UTF-8" standalone="no"?>
<svg
   xmlns:dc="http://purl.org/dc/elements/1.1/"
   xmlns:cc="http://creativecommons.org/ns#"
   xmlns:rdf="http://www.w3.org/1999/02/22-rdf-syntax-ns#"
   xmlns:svg="http://www.w3.org/2000/svg"
   xmlns="http://www.w3.org/2000/svg"
   id="svg14111"
   version="1.1"
   viewBox="0 0 264.58333 264.58333"
   height="1000"
   width="1000">
  <defs
     id="defs14105">
    <filter
       height="1.4435307"
       y="-0.22176535"
       width="1.523004"
       x="-0.26150199"
       id="filter14847"
       style="color-interpolation-filters:sRGB">
      <feGaussianBlur
         id="feGaussianBlur14849"
         stdDeviation="11.080826" />
    </filter>
    <filter
       height="1.3499318"
       y="-0.17496588"
       width="1.3706648"
       x="-0.18533239"
       id="filter14855"
       style="color-interpolation-filters:sRGB">
      <feGaussianBlur
         id="feGaussianBlur14857"
         stdDeviation="7.3089068" />
    </filter>
    <filter
       height="1.4611142"
       y="-0.23055708"
       width="1.2952557"
       x="-0.14762783"
       id="filter14899"
       style="color-interpolation-filters:sRGB">
      <feGaussianBlur
         id="feGaussianBlur14901"
         stdDeviation="7.6414596" />
    </filter>
    <filter
       height="1.6352486"
       y="-0.31762428"
       width="1.3857311"
       x="-0.19286554"
       id="filter14947"
       style="color-interpolation-filters:sRGB">
      <feGaussianBlur
         id="feGaussianBlur14949"
         stdDeviation="9.7876635" />
    </filter>
    <filter
       height="1.6286217"
       y="-0.31431085"
       width="2.377514"
       x="-0.68875701"
       id="filter15275"
       style="color-interpolation-filters:sRGB">
      <feGaussianBlur
         id="feGaussianBlur15277"
         stdDeviation="23.837768" />
    </filter>
    <filter
       height="1.6555863"
       y="-0.32779313"
       width="2.2951707"
       x="-0.64758535"
       id="filter15371"
       style="color-interpolation-filters:sRGB">
      <feGaussianBlur
         id="feGaussianBlur15373"
         stdDeviation="18.111175" />
    </filter>
  </defs>
  <metadata
     id="metadata14108">
    <rdf:RDF>
      <cc:Work
         rdf:about="">
        <dc:format>image/svg+xml</dc:format>
        <dc:type
           rdf:resource="http://purl.org/dc/dcmitype/StillImage" />
        <dc:title></dc:title>
      </cc:Work>
    </rdf:RDF>
  </metadata>
  <g
     transform="translate(0,-32.416684)"
     id="layer1">
    <rect
       y="29.463221"
       x="-7.7508163"
       height="277.42575"
       width="284.37479"
       id="rect15755"
       style="opacity:1;fill:#438b38;fill-opacity:1;stroke:none;stroke-width:0.127;stroke-miterlimit:4;stroke-dasharray:none;stroke-dashoffset:0;stroke-opacity:1" />
    <path
       id="path15787"
       d="M 23.79896,70.014669 C 20.789204,63.650063 9.8267677,53.832451 12.093222,54.028804 c 2.266456,0.196351 9.55908,5.598863 11.323513,7.457297 1.557543,1.640524 -4.451933,-15.880711 -2.88285,-14.506244 1.569084,1.374463 7.496734,10.58498 8.019764,12.352153 0.523028,1.767175 1.979406,-14.58145 3.590795,-12.57233 1.519231,1.89422 1.2865,15.210466 2.305128,15.009881 0.931956,-0.183502 8.167221,-13.321682 9.684027,-12.766628 1.299519,0.475542 -3.756376,12.187444 -7.359562,21.021607"
       style="fill:none;stroke:#217a0e;stroke-width:1.77565169;stroke-linecap:butt;stroke-linejoin:miter;stroke-miterlimit:4;stroke-dasharray:none;stroke-opacity:1" />
    <path
       id="path15787-2"
       d="M 87.020737,119.32491 C 84.54565,109.79032 75.530639,95.082922 77.394468,95.377072 c 1.863831,0.29414 7.860955,8.387448 9.311944,11.171498 1.280853,2.45762 -3.661068,-23.790312 -2.370725,-21.731273 1.290344,2.059034 6.164974,15.856973 6.59509,18.504313 0.430115,2.64734 1.627774,-21.843942 2.952907,-18.834152 1.249348,2.837663 1.05796,22.786252 1.895633,22.485752 0.766399,-0.27489 6.716353,-19.956722 7.963703,-19.125216 1.06867,0.712393 -3.08907,18.257566 -6.052167,31.491706"
       style="fill:none;stroke:#217a0e;stroke-width:1.97084522;stroke-linecap:butt;stroke-linejoin:miter;stroke-miterlimit:4;stroke-dasharray:none;stroke-opacity:1" />
    <path
       id="path15787-5"
       d="m 210.42882,91.229674 c -3.41018,-4.141009 -15.83114,-10.528646 -13.26314,-10.400895 2.568,0.127752 10.83089,3.642796 12.83007,4.851947 1.76477,1.067373 -5.04424,-10.332474 -3.2664,-9.438202 1.77784,0.894266 8.49414,6.886911 9.08676,8.036686 0.59262,1.149774 2.24276,-9.487138 4.06854,-8.179942 1.72136,1.232437 1.45767,9.89639 2.61182,9.765886 1.05595,-0.119391 9.25385,-8.667491 10.97245,-8.306359 1.47242,0.309401 -4.25614,7.929527 -8.33872,13.677301"
       style="fill:none;stroke:#217a0e;stroke-width:1.52457547;stroke-linecap:butt;stroke-linejoin:miter;stroke-miterlimit:4;stroke-dasharray:none;stroke-opacity:1" />
    <path
       id="path15787-3"
       d="m 224.036,196.70825 c -3.00975,-6.36461 -13.97219,-16.18222 -11.70574,-15.98587 2.26646,0.19635 9.55908,5.59887 11.32352,7.4573 1.55754,1.64052 -4.45194,-15.88071 -2.88285,-14.50624 1.56908,1.37446 7.49673,10.58498 8.01976,12.35215 0.52303,1.76717 1.97941,-14.58145 3.59079,-12.57233 1.51924,1.89422 1.2865,15.21046 2.30513,15.00988 0.93196,-0.1835 8.16722,-13.32168 9.68403,-12.76663 1.29952,0.47554 -3.75638,12.18745 -7.35956,21.02161"
       style="fill:none;stroke:#217a0e;stroke-width:1.77565169;stroke-linecap:butt;stroke-linejoin:miter;stroke-miterlimit:4;stroke-dasharray:none;stroke-opacity:1" />
    <path
       id="path15787-0"
       d="m 120.84851,228.45222 c -3.00976,-10.25305 -13.9722,-26.06873 -11.70574,-25.7524 2.26645,0.31631 9.55908,9.01947 11.32351,12.01331 1.55754,2.64281 -4.45193,-25.58301 -2.88285,-23.36881 1.56908,2.21418 7.49673,17.05186 8.01976,19.89868 0.52303,2.84684 1.97941,-23.48997 3.5908,-20.25338 1.51923,3.05149 1.2865,24.50329 2.30513,24.18015 0.93195,-0.29561 8.16722,-21.46055 9.68402,-20.56637 1.29952,0.76607 -3.75637,19.63334 -7.35956,33.86472"
       style="fill:none;stroke:#217a0e;stroke-width:2.25371337;stroke-linecap:butt;stroke-linejoin:miter;stroke-miterlimit:4;stroke-dasharray:none;stroke-opacity:1" />
    <path
       id="path15787-8"
       d="m 39.865714,280.47778 c -4.145259,-7.89769 -19.243525,-20.08015 -16.121992,-19.83649 3.121532,0.24364 13.165457,6.9475 15.595557,9.25358 2.145157,2.0357 -6.13152,-19.70601 -3.970469,-18.00047 2.161064,1.70554 10.325053,13.13467 11.045407,15.32751 0.720341,2.19285 2.726173,-18.09379 4.945496,-15.60072 2.092394,2.35049 1.771861,18.87433 3.174792,18.62542 1.283563,-0.2277 11.248487,-16.53057 13.337547,-15.84181 1.789793,0.59009 -5.173558,15.12312 -10.136132,26.08523"
       style="fill:none;stroke:#217a0e;stroke-width:2.32130456;stroke-linecap:butt;stroke-linejoin:miter;stroke-miterlimit:4;stroke-dasharray:none;stroke-opacity:1" />
    <path
       id="path15787-6"
       d="m 189.40705,281.74906 c -4.0407,-8.84093 -18.75811,-22.47834 -15.71533,-22.2056 3.0428,0.27276 12.83337,7.77726 15.20217,10.35876 2.09106,2.27882 -5.97685,-22.05952 -3.87031,-20.15028 2.10655,1.90923 10.06461,14.70335 10.76679,17.15809 0.70219,2.45475 2.65741,-20.25475 4.82075,-17.46393 2.03963,2.63121 1.72717,21.12851 3.09471,20.84987 1.25119,-0.2549 10.96475,-18.50483 13.00112,-17.73383 1.74465,0.66058 -5.04306,16.92931 -9.88044,29.20063"
       style="fill:none;stroke:#217a0e;stroke-width:2.42484045;stroke-linecap:butt;stroke-linejoin:miter;stroke-miterlimit:4;stroke-dasharray:none;stroke-opacity:1" />
    <path
       id="path15787-38"
       d="m 21.908111,167.74709 c -1.87886,-4.43043 -8.72222,-11.26451 -7.30738,-11.12783 1.41485,0.13668 5.96732,3.89739 7.06877,5.19105 0.97231,1.14198 -2.77914,-11.05463 -1.79964,-10.09786 0.97952,0.95678 4.67989,7.36825 5.0064,8.59839 0.3265,1.23014 1.23565,-10.15021 2.24157,-8.75165 0.94839,1.31857 0.8031,10.58807 1.43899,10.44844 0.58178,-0.12773 5.09844,-9.27328 6.04532,-8.8869 0.81123,0.33102 -2.34495,8.48372 -4.59426,14.63323"
       style="fill:none;stroke:#217a0e;stroke-width:1.17051327;stroke-linecap:butt;stroke-linejoin:miter;stroke-miterlimit:4;stroke-dasharray:none;stroke-opacity:1" />
  </g>
</svg>
