<?xml version="1.0" encoding="UTF-8" standalone="no"?>
<svg
   xmlns:dc="http://purl.org/dc/elements/1.1/"
   xmlns:cc="http://creativecommons.org/ns#"
   xmlns:rdf="http://www.w3.org/1999/02/22-rdf-syntax-ns#"
   xmlns:svg="http://www.w3.org/2000/svg"
   xmlns="http://www.w3.org/2000/svg"
   id="svg15846"
   version="1.1"
   viewBox="0 0 26.458332 26.458333"
   height="100"
   width="100">
  <defs
     id="defs15840" />
  <metadata
     id="metadata15843">
    <rdf:RDF>
      <cc:Work
         rdf:about="">
        <dc:format>image/svg+xml</dc:format>
        <dc:type
           rdf:resource="http://purl.org/dc/dcmitype/StillImage" />
        <dc:title></dc:title>
      </cc:Work>
    </rdf:RDF>
  </metadata>
  <g
     transform="translate(0,-270.54166)"
     id="layer1">
    <path
       id="path16404"
       d="m 25.903341,280.00963 c 0,0 -0.559528,-0.4965 -0.588982,-4.41 0.0589,-2.54083 -1.060158,-3.62143 -3.268812,-3.41699 -3.180462,-0.17522 -1.737477,-0.84696 -8.805179,-0.96376"
       style="fill:#4f2f1b;fill-opacity:1;stroke:#4f2f1b;stroke-width:0.46451101px;stroke-linecap:butt;stroke-linejoin:miter;stroke-opacity:1" />
    <path
       id="path16404-2"
       d="m 14.969209,296.30627 c 0,0 2.250986,-1.06867 6.628034,-1.36354 2.83938,-0.13689 4.082159,-0.09 3.921501,-1.62035 0.293794,-2.23667 -0.678045,-1.5374 -0.32995,-6.48863"
       style="fill:#4f2f1b;fill-opacity:1;stroke:#4f2f1b;stroke-width:0.41021946px;stroke-linecap:butt;stroke-linejoin:miter;stroke-opacity:1" />
    <path
       id="path16404-6"
       d="m 10.716962,271.10835 c 0,0 -0.995474,0.12186 -4.9411082,0.19148 -2.5625005,-0.0323 -3.4049342,1.43914 -3.1760169,3.62729 -0.1438841,3.1558 -0.8360633,1.73175 -0.8809749,8.7418"
       style="fill:#51301b;fill-opacity:1;stroke:#4f2f1b;stroke-width:0.46451101px;stroke-linecap:butt;stroke-linejoin:miter;stroke-opacity:1" />
    <path
       id="path16404-0"
       d="m 2.2483696,286.52318 c 0,0 -0.1940415,-0.014 -1.4583752,5.00594 -0.46037394,2.87392 -0.68175785,4.08344 1.3865784,3.74511 4.0921699,0.48704 2.2040903,-0.22557 7.4449369,0.68173"
       style="fill:#4f2f1b;fill-opacity:1;stroke:#4f2f1b;stroke-width:0.46451101px;stroke-linecap:butt;stroke-linejoin:miter;stroke-opacity:1" />
    <path
       id="path15848"
       d="m 25.575542,283.49625 c 0,0 1.595888,-7.25868 -5.869624,-10.49719 -7.465511,-3.2385 -12.7941552,-1.20048 -15.2556102,1.61925 -2.4614549,2.81973 -4.21963706,14.71283 1.352448,19.12385 5.5720842,4.41107 17.6629662,3.60144 19.7727862,-10.24591 z"
       style="fill:#deaa87;stroke:#59351e;stroke-width:1.25849009;stroke-linecap:butt;stroke-linejoin:miter;stroke-miterlimit:4;stroke-dasharray:none;stroke-opacity:1" />
    <path
       id="path16433"
       d="m 22.457835,277.5272 c 0,0 -6.866185,-8.16142 -15.66674,-2.10279 -6.0747649,4.1821 -3.6516465,18.74969 4.211172,19.45059 9.099668,0.20447 13.07525,-6.01621 13.045802,-12.96704"
       style="fill:none;stroke:#a6795c;stroke-width:0.17556323;stroke-linecap:butt;stroke-linejoin:miter;stroke-miterlimit:4;stroke-dasharray:none;stroke-opacity:1" />
    <path
       id="path16433-0"
       d="m 4.2504172,282.56951 c 0,0 -1.3786229,9.37419 7.4226488,11.04525 6.075271,1.15345 14.038823,-9.47316 10.086795,-14.79463 -4.961887,-5.77855 -11.166482,-4.35202 -15.5968112,0.0188"
       style="fill:none;stroke:#a6795c;stroke-width:0.15180974;stroke-linecap:butt;stroke-linejoin:miter;stroke-miterlimit:4;stroke-dasharray:none;stroke-opacity:1" />
    <path
       id="path16433-2"
       d="m 16.880882,277.10345 c 0,0 -7.0827981,-2.85154 -10.5715403,3.89022 -2.4081746,4.65363 4.0459183,13.01554 9.2316343,10.84004 5.796158,-2.89954 6.193422,-8.13761 3.823015,-12.50237"
       style="fill:none;stroke:#a6795c;stroke-width:0.12521692;stroke-linecap:butt;stroke-linejoin:miter;stroke-miterlimit:4;stroke-dasharray:none;stroke-opacity:1" />
    <path
       id="path16433-5"
       d="m 15.111728,289.98373 c 0,0 5.640166,-2.12818 4.001981,-7.88546 -1.130796,-3.9741 -9.3948649,-5.36652 -11.2131272,-1.34395 -1.7786027,4.7666 0.8314598,8.00633 4.5679672,9.26555"
       style="fill:none;stroke:#a6795c;stroke-width:0.09885095;stroke-linecap:butt;stroke-linejoin:miter;stroke-miterlimit:4;stroke-dasharray:none;stroke-opacity:1" />
    <path
       id="path16433-5-3"
       d="m 8.5938282,284.70766 c 0,0 0.9697943,4.53833 5.6118318,3.98179 3.204259,-0.38417 5.266834,-6.49497 2.377436,-8.3566 -3.468748,-1.92039 -6.282582,-0.32488 -7.7014187,2.36283"
       style="fill:none;stroke:#a6795c;stroke-width:0.07662589;stroke-linecap:butt;stroke-linejoin:miter;stroke-miterlimit:4;stroke-dasharray:none;stroke-opacity:1" />
    <path
       id="path16433-5-6"
       d="m 16.286321,283.76049 c 0,0 -0.211916,-2.89529 -3.137433,-2.9419 -2.019394,-0.0321 -3.8222346,3.58214 -2.190674,4.97999 1.985661,1.48317 3.866919,0.73145 4.97708,-0.81506"
       style="fill:none;stroke:#a6795c;stroke-width:0.04794839;stroke-linecap:butt;stroke-linejoin:miter;stroke-miterlimit:4;stroke-dasharray:none;stroke-opacity:1" />
    <path
       id="path16433-5-6-6"
       d="m 13.542829,282.25684 c 0,0 -1.403369,-0.30318 -1.831768,1.05574 -0.295661,0.93805 1.169056,2.2814 2.05898,1.71403 0.979578,-0.72076 0.884117,-1.70319 0.304409,-2.43609"
       style="fill:none;stroke:#a6795c;stroke-width:0.02352723;stroke-linecap:butt;stroke-linejoin:miter;stroke-miterlimit:4;stroke-dasharray:none;stroke-opacity:1" />
  </g>
</svg>
