<?xml version="1.0" encoding="UTF-8" standalone="no"?>
<svg
   xmlns:dc="http://purl.org/dc/elements/1.1/"
   xmlns:cc="http://creativecommons.org/ns#"
   xmlns:rdf="http://www.w3.org/1999/02/22-rdf-syntax-ns#"
   xmlns:svg="http://www.w3.org/2000/svg"
   xmlns="http://www.w3.org/2000/svg"
   xmlns:xlink="http://www.w3.org/1999/xlink"
   id="svg4670"
   version="1.1"
   viewBox="0 0 211.66666 211.66667"
   height="800"
   width="800">
  <defs
     id="defs4664">
    <linearGradient
       id="linearGradient17048">
      <stop
         style="stop-color:#06ba00;stop-opacity:1"
         offset="0"
         id="stop17044" />
      <stop
         style="stop-color:#077900;stop-opacity:1"
         offset="1"
         id="stop17046" />
    </linearGradient>
    <linearGradient
       id="linearGradient5248">
      <stop
         style="stop-color:#0aa000;stop-opacity:1"
         offset="0"
         id="stop6041" />
      <stop
         style="stop-color:#085d00;stop-opacity:1"
         offset="1"
         id="stop6043" />
    </linearGradient>
    <linearGradient
       id="linearGradient5775">
      <stop
         style="stop-color:#0d8b00;stop-opacity:1"
         offset="0"
         id="stop5771" />
      <stop
         style="stop-color:#19ce00;stop-opacity:1"
         offset="1"
         id="stop5773" />
    </linearGradient>
    <radialGradient
       gradientUnits="userSpaceOnUse"
       gradientTransform="matrix(12.499349,-6.2782703,7.1436258,13.225429,-2072.6813,-3531.9398)"
       r="10.021057"
       fy="286.51501"
       fx="10.558851"
       cy="286.51501"
       cx="10.558851"
       id="radialGradient5252"
       xlink:href="#linearGradient17048" />
    <radialGradient
       gradientUnits="userSpaceOnUse"
       gradientTransform="matrix(7.0559529,-6.7949134,8.1123416,6.8078025,-2296.959,-1700.1316)"
       r="10.021057"
       fy="286.51501"
       fx="10.558851"
       cy="286.51501"
       cx="10.558851"
       id="radialGradient5252-1"
       xlink:href="#linearGradient5775" />
    <radialGradient
       gradientUnits="userSpaceOnUse"
       gradientTransform="matrix(0.65093196,-0.62471207,0.74838685,0.62589708,-211.20615,113.58276)"
       r="10.021057"
       fy="286.51501"
       fx="10.558851"
       cy="286.51501"
       cx="10.558851"
       id="radialGradient5252-1-2"
       xlink:href="#linearGradient17048" />
    <radialGradient
       gradientUnits="userSpaceOnUse"
       gradientTransform="matrix(7.2824603,-6.696359,8.3727606,6.7090612,-2366.09,-1647.6183)"
       r="10.021057"
       fy="286.51501"
       fx="10.558851"
       cy="286.51501"
       cx="10.558851"
       id="radialGradient5252-1-2-8"
       xlink:href="#linearGradient5248" />
    <radialGradient
       gradientUnits="userSpaceOnUse"
       gradientTransform="matrix(0.66892842,-0.62471207,0.76907768,0.62589708,-216.61362,114.45682)"
       r="10.021057"
       fy="286.51501"
       fx="10.558851"
       cy="286.51501"
       cx="10.558851"
       id="radialGradient5252-1-2-8-9"
       xlink:href="#linearGradient17048" />
    <filter
       height="1.1256465"
       y="-0.062823236"
       width="1.1148392"
       x="-0.057419602"
       id="filter6158"
       style="color-interpolation-filters:sRGB">
      <feGaussianBlur
         id="feGaussianBlur6160"
         stdDeviation="0.33612898" />
    </filter>
    <filter
       height="1.1238804"
       y="-0.061940175"
       width="1.1163554"
       x="-0.05817768"
       id="filter6182"
       style="color-interpolation-filters:sRGB">
      <feGaussianBlur
         id="feGaussianBlur6184"
         stdDeviation="0.33140427" />
    </filter>
    <filter
       height="1.0480212"
       y="-0.024010622"
       width="1.0479788"
       x="-0.023989387"
       id="filter17146"
       style="color-interpolation-filters:sRGB">
      <feGaussianBlur
         id="feGaussianBlur17148"
         stdDeviation="2.0178278" />
    </filter>
  </defs>
  <metadata
     id="metadata4667">
    <rdf:RDF>
      <cc:Work
         rdf:about="">
        <dc:format>image/svg+xml</dc:format>
        <dc:type
           rdf:resource="http://purl.org/dc/dcmitype/StillImage" />
        <dc:title></dc:title>
      </cc:Work>
    </rdf:RDF>
  </metadata>
  <g
     transform="translate(0,-85.33332)"
     id="layer1">
    <path
       id="path4678-2"
       d="m 161.03608,121.72722 c 0,0 5.30447,-48.362159 -56.90273,-21.85603 -8.68008,-6.975344 -33.03252,-22.321016 -36.89033,10.92806 -28.692484,-10.46297 -45.088184,5.1152 -39.783694,28.59879 -17.36015,7.44035 -29.89804,19.29838 -17.11904,43.71196 -11.33232,18.6009 -2.65225,38.13178 17.36015,40.68934 -6.26894,27.90139 9.88565,28.83147 30.621394,27.66879 6.26894,35.10916 30.13915,39.29426 51.83936,30.22645 18.56571,19.0658 46.53484,8.83542 43.15926,-9.53298 28.69248,-4.41762 48.70487,-20.92586 38.81921,-48.36226 17.8424,-6.74267 22.42356,-43.01448 -2.17,-46.03693 9.1623,-22.55361 7.71562,-28.83147 -6.51005,-37.43438 2.41112,-15.81067 -9.40341,-23.48351 -22.42353,-18.60081 z"
       style="opacity:1;fill:#000f00;fill-opacity:0.39215687;stroke:none;stroke-width:1.65375638;stroke-linecap:butt;stroke-linejoin:miter;stroke-miterlimit:4;stroke-dasharray:none;stroke-opacity:1;filter:url(#filter17146)" />
    <path
       id="path4678"
       d="m 161.03608,121.72722 c 0,0 5.30448,-48.362161 -56.90272,-21.856032 -8.680085,-6.975344 -33.032522,-22.321016 -36.890337,10.928062 -28.692474,-10.46297 -45.088175,5.1152 -39.783685,28.59879 -17.360152,7.44035 -29.8980411,19.29838 -17.119039,43.71196 -11.33232268,18.6009 -2.6522457,38.13178 17.360153,40.68934 -6.268944,27.90139 9.885644,28.83147 30.621383,27.66879 6.268944,35.10916 30.139155,39.29426 51.839355,30.22645 18.56571,19.0658 46.53484,8.83542 43.15926,-9.53298 28.69248,-4.41762 48.70487,-20.92586 38.81922,-48.36226 17.84239,-6.74267 22.42355,-43.01448 -2.17001,-46.03693 9.16231,-22.55361 7.71562,-28.83147 -6.51005,-37.43438 2.41112,-15.81067 -9.40341,-23.48351 -22.42353,-18.60081 z"
       style="opacity:1;fill:url(#radialGradient5252);fill-opacity:1;stroke:none;stroke-width:1.65375638;stroke-linecap:butt;stroke-linejoin:miter;stroke-miterlimit:4;stroke-dasharray:none;stroke-opacity:1" />
    <path
       id="path4678-0"
       d="m 122.76906,122.2484 c 0,0 -21.0052,-29.84268 -44.36029,-1.13801 -8.540792,-5.21706 -30.982958,4.12606 -28.011856,21.93611 -24.802632,0.64693 -34.124871,38.94995 -7.041708,52.02428 -13.726662,14.20612 -0.581928,32.81591 16.44617,23.23962 -5.324104,16.83889 24.02109,24.30034 35.300353,14.50476 12.837471,27.68687 60.912351,15.17376 58.873571,-13.17991 18.6221,-9.24279 28.35261,-24.22753 14.91003,-39.45652 10.61058,-8.28843 2.95043,-37.20619 -14.66361,-33.61356 6.42815,-24.26918 -19.31947,-33.17023 -31.45266,-24.31677 z"
       style="opacity:1;fill:url(#radialGradient5252-1);fill-opacity:1;stroke:none;stroke-width:1.16194308;stroke-linecap:butt;stroke-linejoin:miter;stroke-miterlimit:4;stroke-dasharray:none;stroke-dashoffset:0;stroke-opacity:1" />
    <path
       transform="matrix(11.187744,0,0,11.05451,-7.9272164,-2982.7998)"
       id="path4678-0-7"
       d="m 12.020732,281.12908 c 0,0 -1.937789,-2.74369 -4.092366,-0.10463 -0.7879126,-0.47965 -2.8582675,0.37933 -2.5841748,2.01676 -2.2881144,0.0594 -3.1481178,3.58099 -0.6496178,4.78303 -1.2663243,1.30608 -0.053684,3.01703 1.5172064,2.1366 -0.4911639,1.54814 2.216015,2.23413 3.2565591,1.33354 1.1842961,2.54548 5.6193421,1.39506 5.4312591,-1.21173 1.717943,-0.84977 2.615611,-2.22744 1.375493,-3.62757 0.978857,-0.76202 0.272187,-3.42067 -1.35276,-3.09037 0.593017,-2.23126 -1.782277,-3.0496 -2.901599,-2.23563 z"
       style="opacity:1;fill:url(#radialGradient5252-1-2);fill-opacity:1;stroke:none;stroke-width:0.1070096;stroke-linecap:butt;stroke-linejoin:miter;stroke-miterlimit:4;stroke-dasharray:none;stroke-dashoffset:0;stroke-opacity:1;filter:url(#filter6182)" />
    <path
       id="path4678-0-7-7"
       d="m 131.31493,148.32978 c 0,0 -21.67948,-29.40999 -45.784341,-1.12148 -8.814965,-5.14158 -31.977564,4.06585 -28.911084,21.61779 -25.598838,0.63738 -35.220335,38.38501 -7.267756,51.26985 -14.167313,13.99991 -0.600609,32.33983 16.974114,22.90239 -5.495016,16.59473 24.79221,23.94793 36.433547,14.29434 13.24959,27.28532 62.86777,14.95388 60.76354,-12.98861 19.21989,-9.1088 29.26277,-23.87625 15.38866,-38.88421 10.95121,-8.16832 3.04515,-36.66667 -15.13435,-33.1261 6.63453,-23.91725 -19.93963,-32.68902 -32.46233,-23.96397 z"
       style="opacity:1;fill:url(#radialGradient5252-1-2-8);fill-opacity:1;stroke:none;stroke-width:1.1718539;stroke-linecap:butt;stroke-linejoin:miter;stroke-miterlimit:4;stroke-dasharray:none;stroke-dashoffset:0;stroke-opacity:1" />
    <path
       transform="matrix(10.206494,0,0,10.23556,-1.7153633,-2744.3715)"
       id="path4678-0-7-7-3"
       d="m 12.784851,282.00315 c 0,0 -1.991363,-2.74369 -4.2055083,-0.10463 -0.8096956,-0.47965 -2.9372902,0.37933 -2.6556197,2.01676 -2.3513743,0.0594 -3.2351545,3.58099 -0.6675778,4.78303 -1.3013348,1.30608 -0.055168,3.01703 1.5591528,2.1366 -0.5047432,1.54814 2.2772815,2.23413 3.346593,1.33354 1.217039,2.54548 5.774703,1.39506 5.58142,-1.21173 1.765439,-0.84977 2.687925,-2.22744 1.413522,-3.62757 1.005919,-0.76202 0.279712,-3.42067 -1.390161,-3.09037 0.609413,-2.23126 -1.831553,-3.0496 -2.981821,-2.23563 z"
       style="opacity:1;fill:url(#radialGradient5252-1-2-8-9);fill-opacity:1;stroke:none;stroke-width:0.10847877;stroke-linecap:butt;stroke-linejoin:miter;stroke-miterlimit:4;stroke-dasharray:none;stroke-dashoffset:0;stroke-opacity:1;filter:url(#filter6158)" />
  </g>
</svg>
