<?xml version="1.0" encoding="UTF-8" standalone="no"?>
<svg
   xmlns:dc="http://purl.org/dc/elements/1.1/"
   xmlns:cc="http://creativecommons.org/ns#"
   xmlns:rdf="http://www.w3.org/1999/02/22-rdf-syntax-ns#"
   xmlns:svg="http://www.w3.org/2000/svg"
   xmlns="http://www.w3.org/2000/svg"
   id="svg8"
   version="1.1"
   viewBox="0 0 211.66666 211.66667"
   height="800"
   width="800">
  <defs
     id="defs2">
    <filter
       height="1.048"
       y="-0.024000003"
       width="1.048"
       x="-0.024000003"
       id="filter17239"
       style="color-interpolation-filters:sRGB">
      <feGaussianBlur
         id="feGaussianBlur17241"
         stdDeviation="0.12218757" />
    </filter>
  </defs>
  <metadata
     id="metadata5">
    <rdf:RDF>
      <cc:Work
         rdf:about="">
        <dc:format>image/svg+xml</dc:format>
        <dc:type
           rdf:resource="http://purl.org/dc/dcmitype/StillImage" />
        <dc:title></dc:title>
      </cc:Work>
    </rdf:RDF>
  </metadata>
  <g
     transform="translate(0,-85.33332)"
     id="layer1">
    <path
       transform="matrix(16.848787,0,0,16.865146,2.8700192,-4564.1448)"
       style="fill:#001500;fill-opacity:0.39215687;stroke-width:0.26458332;filter:url(#filter17239)"
       d="m 11.258729,285.27352 -1.7747467,0.17677 -0.5682741,1.95259 -1.6253565,-0.7343 -1.4684362,1.40686 -1.0404529,-1.44859 -1.9751321,0.48415 -0.1767607,-1.77474 -1.95259285,-0.56828 0.73429435,-1.62535 -1.40685799,-1.46844 1.44859579,-1.04045 -0.48415661,-1.97514 1.77474721,-0.17676 0.5682741,-1.95259 1.6253564,0.73429 1.4684363,-1.40685 1.0404528,1.44859 1.9751322,-0.48415 0.1767606,1.77474 1.9525929,0.56828 -0.734294,1.62535 1.406858,1.46844 -1.448596,1.04045 z"
       id="path46-5" />
    <path
       transform="matrix(16.848787,0,0,16.865146,2.8700192,-4564.1448)"
       style="fill:#004600;fill-opacity:1;stroke-width:0.26458332"
       d="m 11.258729,285.27352 -1.7747467,0.17677 -0.5682741,1.95259 -1.6253565,-0.7343 -1.4684362,1.40686 -1.0404529,-1.44859 -1.9751321,0.48415 -0.1767607,-1.77474 -1.95259285,-0.56828 0.73429435,-1.62535 -1.40685799,-1.46844 1.44859579,-1.04045 -0.48415661,-1.97514 1.77474721,-0.17676 0.5682741,-1.95259 1.6253564,0.73429 1.4684363,-1.40685 1.0404528,1.44859 1.9751322,-0.48415 0.1767606,1.77474 1.9525929,0.56828 -0.734294,1.62535 1.406858,1.46844 -1.448596,1.04045 z"
       id="path46" />
    <path
       transform="matrix(14.467211,-3.6359119,3.7698597,15.076946,-1043.4345,-4035.7454)"
       style="fill:#005300;fill-opacity:1;stroke-width:0.26458332"
       d="m 11.258729,285.27352 -1.7747467,0.17677 -0.5682741,1.95259 -1.6253565,-0.7343 -1.4684362,1.40686 -1.0404529,-1.44859 -1.9751321,0.48415 -0.1767607,-1.77474 -1.95259285,-0.56828 0.73429435,-1.62535 -1.40685799,-1.46844 1.44859579,-1.04045 -0.48415661,-1.97514 1.77474721,-0.17676 0.5682741,-1.95259 1.6253564,0.73429 1.4684363,-1.40685 1.0404528,1.44859 1.9751322,-0.48415 0.1767606,1.77474 1.9525929,0.56828 -0.734294,1.62535 1.406858,1.46844 -1.448596,1.04045 z"
       id="path46-0" />
    <path
       transform="matrix(13.864446,1.1647314,-1.2076401,14.448776,363.26806,-3886.7541)"
       style="fill:#005a00;fill-opacity:1;stroke-width:0.26458332"
       d="m 11.258729,285.27352 -1.7747467,0.17677 -0.5682741,1.95259 -1.6253565,-0.7343 -1.4684362,1.40686 -1.0404529,-1.44859 -1.9751321,0.48415 -0.1767607,-1.77474 -1.95259285,-0.56828 0.73429435,-1.62535 -1.40685799,-1.46844 1.44859579,-1.04045 -0.48415661,-1.97514 1.77474721,-0.17676 0.5682741,-1.95259 1.6253564,0.73429 1.4684363,-1.40685 1.0404528,1.44859 1.9751322,-0.48415 0.1767606,1.77474 1.9525929,0.56828 -0.734294,1.62535 1.406858,1.46844 -1.448596,1.04045 z"
       id="path46-0-9" />
    <path
       transform="matrix(11.992511,5.3582572,-5.9454742,11.678512,1712.9638,-3134.9473)"
       style="fill:#006400;fill-opacity:1;stroke-width:0.26458332"
       d="m 11.258729,285.27352 -2.5741677,0.14611 -0.3525041,2.24635 -2.1684261,-1.39486 -1.6055485,1.61013 -0.9344189,-2.40303 -2.245328,0.35891 0.6565046,-2.49333 -2.02746848,-1.02941 1.99666558,-1.63126 -1.03518491,-2.02453 2.57416821,-0.1461 0.3525041,-2.24635 2.1684261,1.39486 1.6055485,-1.61013 0.9344188,2.40303 2.2453278,-0.35891 -0.656504,2.49333 2.027468,1.02941 -1.996665,1.63126 z"
       id="path46-0-9-9" />
    <path
       transform="matrix(9.0175291,-6.0582572,5.537817,9.310601,-1506.6976,-2396.0737)"
       style="fill:#007200;fill-opacity:1;stroke-width:0.26458332"
       d="m 11.258729,285.27352 -2.5741677,0.14611 -0.3525041,2.24635 -2.1684261,-1.39486 -1.6055485,1.61013 -0.9344189,-2.40303 -2.245328,0.35891 0.6565046,-2.49333 -2.02746848,-1.02941 1.99666558,-1.63126 -1.03518491,-2.02453 2.57416821,-0.1461 0.3525041,-2.24635 2.1684261,1.39486 1.6055485,-1.61013 0.9344188,2.40303 2.2453278,-0.35891 -0.656504,2.49333 2.027468,1.02941 -1.996665,1.63126 z"
       id="path46-0-9-9-1" />
    <path
       transform="matrix(10.762166,0.85170903,-0.79546594,10.102916,214.74585,-2709.9053)"
       d="m 15.812576,290.85863 -3.354454,-2.08009 -0.995103,3.62732 -0.90111,-3.8428 -3.268549,1.86126 2.0800928,-3.35446 -3.6273237,-0.9951 3.8428048,-0.90111 -1.8612609,-3.26855 3.354454,2.08009 0.995103,-3.62732 0.90111,3.84281 3.268549,-1.86126 -2.080093,3.35445 3.627324,0.9951 -3.842805,0.90111 z"
       id="path4615"
       style="fill:#007a00;fill-opacity:1;stroke-width:0.26458332" />
    <path
       transform="matrix(9.1580177,2.5289845,-2.3619817,8.597032,682.03035,-2300.5072)"
       d="m 15.812576,290.85863 -3.782574,-2.75734 -1.239526,4.23231 -0.202617,-4.67651 -4.0817872,1.6697 3.5299142,-3.07417 -3.8503797,-2.15022 4.6043487,0.84308 -0.719558,-4.35099 2.211614,4.12548 2.953106,-3.27538 -1.84651,4.30131 4.40202,0.26667 -4.514175,1.23816 z"
       id="path4615-4"
       style="fill:#006a00;fill-opacity:1;stroke-width:0.26458332" />
    <path
       transform="matrix(5.5932622,1.5445781,-1.442581,5.2506402,461.88895,-1331.1096)"
       d="m 15.812576,290.85863 -3.782574,-2.75734 -1.239526,4.23231 -0.202617,-4.67651 -4.0817872,1.6697 3.5299142,-3.07417 -3.8503797,-2.15022 4.6043487,0.84308 -0.719558,-4.35099 2.211614,4.12548 2.953106,-3.27538 -1.84651,4.30131 4.40202,0.26667 -4.514175,1.23816 z"
       id="path4615-4-6"
       style="fill:#007100;fill-opacity:1;stroke-width:0.26458332" />
    <path
       transform="matrix(3.2813325,0.1491082,-0.13926184,3.0803305,115.68586,-691.99367)"
       d="m 15.812576,290.85863 -3.782574,-2.75734 -1.239526,4.23231 -0.202617,-4.67651 -4.0817872,1.6697 3.5299142,-3.07417 -3.8503797,-2.15022 4.6043487,0.84308 -0.719558,-4.35099 2.211614,4.12548 2.953106,-3.27538 -1.84651,4.30131 4.40202,0.26667 -4.514175,1.23816 z"
       id="path4615-4-6-4"
       style="fill:#007a00;fill-opacity:1;stroke-width:0.26458332" />
  </g>
</svg>
