<?xml version="1.0" encoding="UTF-8" standalone="no"?>
<svg
   xmlns:dc="http://purl.org/dc/elements/1.1/"
   xmlns:cc="http://creativecommons.org/ns#"
   xmlns:rdf="http://www.w3.org/1999/02/22-rdf-syntax-ns#"
   xmlns:svg="http://www.w3.org/2000/svg"
   xmlns="http://www.w3.org/2000/svg"
   xmlns:xlink="http://www.w3.org/1999/xlink"
   id="svg4670"
   version="1.1"
   viewBox="0 0 211.66666 211.66667"
   height="800"
   width="800">
  <defs
     id="defs4664">
    <linearGradient
       id="linearGradient13253">
      <stop
         id="stop13249"
         offset="0"
         style="stop-color:#726f00;stop-opacity:1" />
      <stop
         id="stop13251"
         offset="1"
         style="stop-color:#384000;stop-opacity:1" />
    </linearGradient>
    <linearGradient
       id="linearGradient13247">
      <stop
         id="stop13243"
         offset="0"
         style="stop-color:#758800;stop-opacity:1" />
      <stop
         id="stop13245"
         offset="1"
         style="stop-color:#485700;stop-opacity:1" />
    </linearGradient>
    <linearGradient
       id="linearGradient13241">
      <stop
         style="stop-color:#756f00;stop-opacity:1"
         offset="0"
         id="stop13237" />
      <stop
         style="stop-color:#484000;stop-opacity:1"
         offset="1"
         id="stop13239" />
    </linearGradient>
    <radialGradient
       gradientUnits="userSpaceOnUse"
       gradientTransform="matrix(12.448752,-6.2528563,7.1147089,13.171894,-2063.9942,-3516.8734)"
       r="10.021057"
       fy="286.51501"
       fx="10.558851"
       cy="286.51501"
       cx="10.558851"
       id="radialGradient5252"
       xlink:href="#linearGradient13241" />
    <radialGradient
       gradientUnits="userSpaceOnUse"
       gradientTransform="matrix(7.0273909,-6.767408,8.0795034,6.7802451,-2287.364,-1692.4802)"
       r="10.021057"
       fy="286.51501"
       fx="10.558851"
       cy="286.51501"
       cx="10.558851"
       id="radialGradient5252-1"
       xlink:href="#linearGradient13247" />
    <radialGradient
       gradientUnits="userSpaceOnUse"
       gradientTransform="matrix(0.65093196,-0.62471207,0.74838685,0.62589708,-211.20615,113.58276)"
       r="10.021057"
       fy="286.51501"
       fx="10.558851"
       cy="286.51501"
       cx="10.558851"
       id="radialGradient5252-1-2"
       xlink:href="#linearGradient13241" />
    <radialGradient
       gradientUnits="userSpaceOnUse"
       gradientTransform="matrix(7.2529814,-6.6692525,8.3388682,6.6819033,-2356.2152,-1640.1795)"
       r="10.021057"
       fy="286.51501"
       fx="10.558851"
       cy="286.51501"
       cx="10.558851"
       id="radialGradient5252-1-2-8"
       xlink:href="#linearGradient13253" />
    <radialGradient
       gradientUnits="userSpaceOnUse"
       gradientTransform="matrix(0.66892842,-0.62471207,0.76907768,0.62589708,-216.61362,114.45682)"
       r="10.021057"
       fy="286.51501"
       fx="10.558851"
       cy="286.51501"
       cx="10.558851"
       id="radialGradient5252-1-2-8-9"
       xlink:href="#linearGradient13241" />
    <filter
       height="1.1256465"
       y="-0.062823236"
       width="1.1148392"
       x="-0.057419602"
       id="filter6158"
       style="color-interpolation-filters:sRGB">
      <feGaussianBlur
         id="feGaussianBlur6160"
         stdDeviation="0.33612898" />
    </filter>
    <filter
       height="1.1238804"
       y="-0.061940175"
       width="1.1163554"
       x="-0.05817768"
       id="filter6182"
       style="color-interpolation-filters:sRGB">
      <feGaussianBlur
         id="feGaussianBlur6184"
         stdDeviation="0.33140427" />
    </filter>
    <filter
       height="1.0480409"
       y="-0.024020444"
       width="1.0479592"
       x="-0.023979591"
       id="filter17202"
       style="color-interpolation-filters:sRGB">
      <feGaussianBlur
         id="feGaussianBlur17204"
         stdDeviation="2.0127581" />
    </filter>
  </defs>
  <metadata
     id="metadata4667">
    <rdf:RDF>
      <cc:Work
         rdf:about="">
        <dc:format>image/svg+xml</dc:format>
        <dc:type
           rdf:resource="http://purl.org/dc/dcmitype/StillImage" />
        <dc:title></dc:title>
      </cc:Work>
    </rdf:RDF>
  </metadata>
  <g
     transform="translate(0,-85.33332)"
     id="layer1">
    <path
       id="path4678-9"
       d="m 144.44817,111.5053 c 0,0 -10.45512,-29.955053 -40.7094,-11.20047 -9.993915,-9.420261 -42.791345,-20.431999 -51.579825,12.00801 -22.95556,-5.69922 -34.33862,10.71526 -24.78381,27.35884 -17.28988,7.41022 -29.7770204,19.22027 -17.04974,43.53502 -11.28646038,18.5256 -2.6415104,38.42712 19.53818,40.52462 -10.74018,27.33876 12.31877,41.97981 31.39676,34.75137 -2.30001,29.79592 28.44334,32.83992 50.055685,23.80881 18.49058,18.98863 55.11488,6.32659 51.75296,-11.96746 32.6233,3.01963 43.56145,-24.43848 28.31988,-46.59272 16.646,-4.46702 22.10793,-36.32027 3.45954,-46.52505 19.01777,-13.69389 7.23473,-33.66106 -12.10446,-36.60837 14.76705,-23.16612 -10.93918,-43.173555 -38.29577,-29.0926 z"
       style="opacity:1;fill:#0d0c00;fill-opacity:0.39215687;stroke:none;stroke-width:1.64706218;stroke-linecap:butt;stroke-linejoin:miter;stroke-miterlimit:4;stroke-dasharray:none;stroke-opacity:1;filter:url(#filter17202)" />
    <path
       id="path4678"
       d="m 144.71828,111.43674 c 0,0 -10.45512,-29.955055 -40.7094,-11.20047 -9.99392,-9.420262 -42.791349,-20.432 -51.579824,12.00801 -22.955562,-5.69922 -34.338617,10.71526 -24.783815,27.35884 -17.289879,7.41022 -29.7770157,19.22027 -17.049742,43.53502 -11.2864503,18.5256 -2.6415096,38.42712 19.538189,40.52462 -10.740184,27.33876 12.318765,41.97981 31.396754,34.75137 -2.300004,29.79592 28.443337,32.83992 50.055688,23.80881 18.49058,18.98863 55.11488,6.32659 51.75296,-11.96746 32.6233,3.01963 43.56145,-24.43848 28.31988,-46.59272 16.646,-4.46702 22.10793,-36.32027 3.45954,-46.52505 19.01777,-13.69389 7.23473,-33.66106 -12.10446,-36.60837 14.76705,-23.16612 -10.93918,-43.173556 -38.29577,-29.0926 z"
       style="opacity:1;fill:url(#radialGradient5252);fill-opacity:1;stroke:none;stroke-width:1.64706206;stroke-linecap:butt;stroke-linejoin:miter;stroke-miterlimit:4;stroke-dasharray:none;stroke-opacity:1" />
    <path
       id="path4678-0"
       d="m 122.56916,122.5229 c 0,0 -20.92018,-29.72188 -44.180725,-1.1334 -8.50622,-5.19594 -30.857542,4.10935 -27.898467,21.8473 -24.702232,0.64433 -33.986737,38.7923 -7.013204,51.8137 -13.671097,14.14862 -0.579572,32.68307 16.379597,23.14556 -5.302551,16.77071 23.923854,24.20197 35.157461,14.44603 12.785508,27.57479 60.665788,15.11235 58.635258,-13.12656 18.54673,-9.20537 28.23784,-24.12945 14.84966,-39.2968 10.56764,-8.25488 2.93851,-37.05559 -14.60425,-33.47749 6.40214,-24.17094 -19.24126,-33.03597 -31.32533,-24.21834 z"
       style="opacity:1;fill:url(#radialGradient5252-1);fill-opacity:1;stroke:none;stroke-width:1.15723968;stroke-linecap:butt;stroke-linejoin:miter;stroke-miterlimit:4;stroke-dasharray:none;stroke-dashoffset:0;stroke-opacity:1" />
    <path
       transform="matrix(11.142457,0,0,11.009763,-7.598071,-2969.9563)"
       id="path4678-0-7"
       d="m 12.020732,281.12908 c 0,0 -1.937789,-2.74369 -4.092366,-0.10463 -0.7879126,-0.47965 -2.8582675,0.37933 -2.5841748,2.01676 -2.2881144,0.0594 -3.1481178,3.58099 -0.6496178,4.78303 -1.2663243,1.30608 -0.053684,3.01703 1.5172064,2.1366 -0.4911639,1.54814 2.216015,2.23413 3.2565591,1.33354 1.1842961,2.54548 5.6193421,1.39506 5.4312591,-1.21173 1.717943,-0.84977 2.615611,-2.22744 1.375493,-3.62757 0.978857,-0.76202 0.272187,-3.42067 -1.35276,-3.09037 0.593017,-2.23126 -1.782277,-3.0496 -2.901599,-2.23563 z"
       style="opacity:1;fill:url(#radialGradient5252-1-2);fill-opacity:1;stroke:none;stroke-width:0.1070096;stroke-linecap:butt;stroke-linejoin:miter;stroke-miterlimit:4;stroke-dasharray:none;stroke-dashoffset:0;stroke-opacity:1;filter:url(#filter6182)" />
    <path
       id="path4678-0-7-7"
       d="m 131.08045,148.4987 c 0,0 -21.59174,-29.29094 -45.599025,-1.11694 -8.779283,-5.12075 -31.848122,4.04939 -28.794055,21.53029 -25.495216,0.6348 -35.077766,38.22963 -7.238336,51.06231 -14.109966,13.94323 -0.598178,32.20892 16.905403,22.80969 -5.472772,16.52755 24.691853,23.85098 36.286063,14.23646 13.19597,27.17489 62.61329,14.89335 60.51758,-12.93603 19.14209,-9.07193 29.14432,-23.7796 15.32636,-38.7268 10.90688,-8.13525 3.03283,-36.51825 -15.07306,-32.99202 6.60766,-23.82042 -19.85894,-32.55669 -32.33093,-23.86696 z"
       style="opacity:1;fill:url(#radialGradient5252-1-2-8);fill-opacity:1;stroke:none;stroke-width:1.16711032;stroke-linecap:butt;stroke-linejoin:miter;stroke-miterlimit:4;stroke-dasharray:none;stroke-dashoffset:0;stroke-opacity:1" />
    <path
       transform="matrix(10.16518,0,0,10.194126,-1.4113628,-2732.4932)"
       id="path4678-0-7-7-3"
       d="m 12.784851,282.00315 c 0,0 -1.991363,-2.74369 -4.2055083,-0.10463 -0.8096956,-0.47965 -2.9372902,0.37933 -2.6556197,2.01676 -2.3513743,0.0594 -3.2351545,3.58099 -0.6675778,4.78303 -1.3013348,1.30608 -0.055168,3.01703 1.5591528,2.1366 -0.5047432,1.54814 2.2772815,2.23413 3.346593,1.33354 1.217039,2.54548 5.774703,1.39506 5.58142,-1.21173 1.765439,-0.84977 2.687925,-2.22744 1.413522,-3.62757 1.005919,-0.76202 0.279712,-3.42067 -1.390161,-3.09037 0.609413,-2.23126 -1.831553,-3.0496 -2.981821,-2.23563 z"
       style="opacity:1;fill:url(#radialGradient5252-1-2-8-9);fill-opacity:1;stroke:none;stroke-width:0.10847877;stroke-linecap:butt;stroke-linejoin:miter;stroke-miterlimit:4;stroke-dasharray:none;stroke-dashoffset:0;stroke-opacity:1;filter:url(#filter6158)" />
  </g>
</svg>
