<svg width="83" height="40" xmlns="http://www.w3.org/2000/svg">
 <!-- Created with Method Draw - http://github.com/duopixel/Method-Draw/ -->
 <g>
  <title>background</title>
  <rect fill="none" id="canvas_background" height="42" width="85" y="-1" x="-1"/>
  <g display="none" overflow="visible" y="0" x="0" height="100%" width="100%" id="canvasGrid">
   <rect fill="url(#gridpattern)" stroke-width="0" y="0" x="0" height="100%" width="100%"/>
  </g>
 </g>
 <g>
  <title>Layer 1</title>
  <path opacity="0.3" stroke="#605300" id="svg_1" d="m13.545475,20.031258l-12.170475,-19.312508l8.015218,0l12.170475,19.312508l-12.170475,19.312492l-8.015218,0l12.170475,-19.312492z" stroke-width="1.5" fill="#ffde00"/>
  <path opacity="0.45" stroke="#605300" id="svg_2" d="m28.92047,20.03126l-12.17047,-19.31251l8.01522,0l12.17047,19.31251l-12.17047,19.31249l-8.01522,0l12.17047,-19.31249z" stroke-width="1.5" fill="#ffde00"/>
  <path opacity="0.6" stroke="#605300" id="svg_3" d="m43.92047,20.03126l-12.17047,-19.31251l8.01522,0l12.17047,19.31251l-12.17047,19.31249l-8.01522,0l12.17047,-19.31249z" stroke-width="1.5" fill="#ffde00"/>
  <path opacity="0.75" stroke="#605300" id="svg_4" d="m58.92047,20.03126l-12.17047,-19.31251l8.01522,0l12.17047,19.31251l-12.17047,19.31249l-8.01522,0l12.17047,-19.31249z" stroke-width="1.5" fill="#ffde00"/>
  <path opacity="0.9" stroke="#605300" id="svg_5" d="m73.92047,20.03126l-12.17047,-19.31251l8.01522,0l12.17047,19.31251l-12.17047,19.31249l-8.01522,0l12.17047,-19.31249z" stroke-width="1.5" fill="#ffde00"/>
 </g>
</svg>